<?xml version="1.0" encoding="utf-8"?>
<!-- Generator: Adobe Illustrator 14.0.0, SVG Export Plug-In . SVG Version: 6.00 Build 43363)  -->
<!DOCTYPE svg PUBLIC "-//W3C//DTD SVG 1.1 Tiny//EN" "http://www.w3.org/Graphics/SVG/1.1/DTD/svg11-tiny.dtd">
<svg version="1.1" baseProfile="tiny" id="Capa_1" xmlns="http://www.w3.org/2000/svg" xmlns:xlink="http://www.w3.org/1999/xlink"
	 x="0" y="0" width="100" height="100" viewBox="0 0 100 100" xml:space="preserve">
<path fill="#FF0000" d="M53.369,93.27c-3.589,12.339-9.868,3.897-9.868,3.897S14.342,99.251,2.888,73.534
	C0.044,67.151-0.276,59.44-0.455,49.107C-0.632,38.87-0.751,30.486,1.624,24.29C11.302-0.959,38.566,3.643,38.566,3.643
	C43.948-6.098,52.471,8.84,52.471,8.84L53.369,93.27z"/>
<path fill="#FF0000" d="M98.661,49.102c0,0,9.249-57.904-46.975-42.908l-0.579,85.605C51.107,91.799,108.48,108.247,98.661,49.102z"
	/>
<path fill="#FFFFFF" d="M51.1,49.326c-12.417,0-11.265-8.54-11.265-20.146c0-11.608-1.152-21.889,11.265-21.889
	c12.42,0,18.417,9.458,18.417,21.066S63.52,49.326,51.1,49.326z"/>
<path fill="#FFFFFF" d="M50.954,91.241c-12.417,0-11.266-8.538-11.266-20.146c0-11.607-1.151-21.888,11.266-21.888
	c12.418,0,18.415,9.458,18.415,21.068C69.369,81.881,63.372,91.241,50.954,91.241z"/>
<ellipse cx="65.078" cy="28.737" rx="1.745" ry="8.532"/>
<ellipse cx="65.855" cy="69.437" rx="1.514" ry="8.434"/>
<ellipse transform="matrix(-0.2273 0.9738 -0.9738 -0.2273 182.2619 -7.5465)" fill="#7D0000" cx="94.125" cy="68.538" rx="13.625" ry="2.997"/>
<ellipse fill="#E00040" cx="19.791" cy="24.538" rx="11.334" ry="13.333"/>
<ellipse fill="#E00040" cx="8.457" cy="46.705" rx="5.666" ry="5.5"/>
<ellipse fill="#E00040" cx="23.124" cy="71.872" rx="9.333" ry="15"/>
<ellipse fill="#E00040" cx="80.958" cy="29.705" rx="3.5" ry="9.167"/>
<ellipse fill="#E00040" cx="79.791" cy="69.205" rx="5.667" ry="19.667"/>
<ellipse transform="matrix(0.2002 0.9798 -0.9798 0.2002 104.1311 -67.2328)" fill="#7D0000" cx="93.245" cy="30.163" rx="13.625" ry="2.997"/>
</svg>
