<?xml version="1.0" encoding="utf-8"?>
<!-- Generator: Adobe Illustrator 14.0.0, SVG Export Plug-In . SVG Version: 6.00 Build 43363)  -->
<!DOCTYPE svg PUBLIC "-//W3C//DTD SVG 1.1 Tiny//EN" "http://www.w3.org/Graphics/SVG/1.1/DTD/svg11-tiny.dtd">
<svg version="1.1" baseProfile="tiny" id="Capa_1" xmlns="http://www.w3.org/2000/svg" xmlns:xlink="http://www.w3.org/1999/xlink"
	 x="0px" y="0px" width="100" height="100" viewBox="0 0 100 100" xml:space="preserve">
<path fill="#FF0000" d="M92.731,46.422c12.339,3.588,3.897,9.868,3.897,9.868s2.084,29.159-23.633,40.613
	c-6.383,2.844-14.094,3.164-24.427,3.343c-10.237,0.177-18.621,0.296-24.817-2.079C-1.498,88.489,3.105,61.225,3.105,61.225
	C-6.636,55.843,8.302,47.32,8.302,47.32L92.731,46.422z"/>
<path fill="#FF0000" d="M48.563,1.13c0,0-57.904-9.249-42.908,46.975l85.605,0.579C91.261,48.684,107.709-8.689,48.563,1.13z"/>
<path fill="#FFFFFF" d="M48.788,48.691c0,12.417-8.54,11.265-20.146,11.265c-11.608,0-21.889,1.152-21.889-11.265
	c0-12.419,9.458-18.417,21.066-18.417S48.788,36.272,48.788,48.691z"/>
<path fill="#FFFFFF" d="M90.703,48.837c0,12.417-8.538,11.266-20.146,11.266c-11.607,0-21.888,1.151-21.888-11.266
	c0-12.418,9.458-18.415,21.068-18.415C81.343,30.422,90.703,36.419,90.703,48.837z"/>
<ellipse cx="28.198" cy="34.713" rx="8.532" ry="1.745"/>
<ellipse cx="68.899" cy="33.936" rx="8.434" ry="1.514"/>
<ellipse transform="matrix(0.9738 0.2273 -0.2273 0.9738 3.0674 -15.3066)" fill="#7D0000" cx="68" cy="5.667" rx="13.625" ry="2.997"/>
<ellipse fill="#E00040" cx="24" cy="80" rx="13.333" ry="11.334"/>
<ellipse fill="#E00040" cx="46.167" cy="91.334" rx="5.5" ry="5.666"/>
<ellipse fill="#E00040" cx="71.333" cy="76.667" rx="15" ry="9.333"/>
<ellipse fill="#E00040" cx="29.167" cy="18.833" rx="9.167" ry="3.5"/>
<ellipse fill="#E00040" cx="68.667" cy="20" rx="19.667" ry="5.667"/>
<ellipse transform="matrix(0.9798 -0.2002 0.2002 0.9798 -0.7108 6.0631)" fill="#7D0000" cx="29.625" cy="6.546" rx="13.625" ry="2.997"/>
</svg>
