<?xml version="1.0" encoding="utf-8"?>
<!-- Generator: Adobe Illustrator 14.0.0, SVG Export Plug-In . SVG Version: 6.00 Build 43363)  -->
<!DOCTYPE svg PUBLIC "-//W3C//DTD SVG 1.1 Tiny//EN" "http://www.w3.org/Graphics/SVG/1.1/DTD/svg11-tiny.dtd">
<svg version="1.1" baseProfile="tiny" id="Capa_1" xmlns="http://www.w3.org/2000/svg" xmlns:xlink="http://www.w3.org/1999/xlink"
	 x="0" y="0" width="100" height="100" viewBox="0 0 100 100" xml:space="preserve">
<path fill="#FF0000" d="M6.521,53.907c-12.339-3.589-3.897-9.868-3.897-9.868S0.54,14.88,26.257,3.426
	c6.383-2.844,14.094-3.164,24.427-3.343c10.237-0.177,18.622-0.296,24.817,2.079c25.25,9.678,20.647,36.942,20.647,36.942
	c9.741,5.382-5.197,13.904-5.197,13.904L6.521,53.907z"/>
<path fill="#FF0000" d="M50.689,99.199c0,0,57.904,9.249,42.908-46.975L7.992,51.646C7.992,51.646-8.456,109.019,50.689,99.199z"/>
<path fill="#FFFFFF" d="M50.465,51.638c0-12.417,8.54-11.265,20.147-11.265c11.608,0,21.889-1.152,21.889,11.265
	c0,12.42-9.458,18.417-21.066,18.417S50.465,64.058,50.465,51.638z"/>
<path fill="#FFFFFF" d="M8.55,51.492c0-12.417,8.538-11.266,20.146-11.266c11.607,0,21.888-1.151,21.888,11.266
	c0,12.418-9.458,18.415-21.068,18.415C17.91,69.907,8.55,63.91,8.55,51.492z"/>
<ellipse cx="71.055" cy="65.616" rx="8.532" ry="1.745"/>
<ellipse cx="30.354" cy="66.394" rx="8.434" ry="1.514"/>
<ellipse transform="matrix(-0.9738 -0.2273 0.2273 -0.9738 40.1732 193.9519)" fill="#7D0000" cx="31.253" cy="94.663" rx="13.625" ry="2.997"/>
<ellipse fill="#E00040" cx="75.253" cy="20.329" rx="13.333" ry="11.334"/>
<ellipse fill="#E00040" cx="53.086" cy="8.995" rx="5.5" ry="5.666"/>
<ellipse fill="#E00040" cx="27.919" cy="23.662" rx="15" ry="9.333"/>
<ellipse fill="#E00040" cx="70.087" cy="81.496" rx="9.167" ry="3.5"/>
<ellipse fill="#E00040" cx="30.586" cy="80.329" rx="19.667" ry="5.667"/>
<ellipse transform="matrix(-0.9798 0.2002 -0.2002 -0.9798 156.6216 171.7293)" fill="#7D0000" cx="69.628" cy="93.783" rx="13.625" ry="2.997"/>
</svg>
