<?xml version="1.0" encoding="utf-8"?>
<!-- Generator: Adobe Illustrator 14.0.0, SVG Export Plug-In . SVG Version: 6.00 Build 43363)  -->
<!DOCTYPE svg PUBLIC "-//W3C//DTD SVG 1.1 Tiny//EN" "http://www.w3.org/Graphics/SVG/1.1/DTD/svg11-tiny.dtd">
<svg version="1.1" baseProfile="tiny" id="Capa_1" xmlns="http://www.w3.org/2000/svg" xmlns:xlink="http://www.w3.org/1999/xlink"
	 x="0" y="0" width="100" height="100" viewBox="0 0 100 100" xml:space="preserve">
<path fill="#FF0000" d="M45.884,7.06c3.589-12.339,9.868-3.897,9.868-3.897s29.159-2.084,40.613,23.633
	c2.844,6.383,3.164,14.094,3.343,24.427c0.177,10.237,0.296,18.622-2.079,24.817c-9.678,25.25-36.942,20.647-36.942,20.647
	c-5.382,9.741-13.904-5.197-13.904-5.197L45.884,7.06z"/>
<path fill="#FF0000" d="M0.592,51.228c0,0-9.249,57.904,46.975,42.908L48.146,8.53C48.146,8.53-9.228-7.918,0.592,51.228z"/>
<path fill="#FFFFFF" d="M48.153,51.003c12.417,0,11.265,8.54,11.265,20.147c0,11.608,1.152,21.889-11.265,21.889
	c-12.42,0-18.417-9.458-18.417-21.066S35.733,51.003,48.153,51.003z"/>
<path fill="#FFFFFF" d="M48.299,9.088c12.417,0,11.266,8.538,11.266,20.146c0,11.607,1.151,21.888-11.266,21.888
	c-12.418,0-18.415-9.458-18.415-21.068C29.884,18.448,35.881,9.088,48.299,9.088z"/>
<ellipse cx="34.175" cy="71.593" rx="1.745" ry="8.532"/>
<ellipse cx="33.397" cy="30.892" rx="1.514" ry="8.434"/>
<ellipse transform="matrix(0.2273 -0.9738 0.9738 0.2273 -26.9966 29.5594)" fill="#7D0000" cx="5.128" cy="31.791" rx="13.625" ry="2.997"/>
<ellipse fill="#E00040" cx="79.462" cy="75.791" rx="11.334" ry="13.333"/>
<ellipse fill="#E00040" cx="90.796" cy="53.625" rx="5.666" ry="5.5"/>
<ellipse fill="#E00040" cx="76.129" cy="28.458" rx="9.333" ry="15"/>
<ellipse fill="#E00040" cx="18.295" cy="70.625" rx="3.5" ry="9.167"/>
<ellipse fill="#E00040" cx="19.462" cy="31.125" rx="5.667" ry="19.667"/>
<ellipse transform="matrix(-0.2002 -0.9798 0.9798 -0.2002 -61.5357 90.0992)" fill="#7D0000" cx="6.008" cy="70.167" rx="13.625" ry="2.997"/>
</svg>
