<?xml version="1.0" encoding="utf-8"?>
<!-- Generator: Adobe Illustrator 14.0.0, SVG Export Plug-In . SVG Version: 6.00 Build 43363)  -->
<!DOCTYPE svg PUBLIC "-//W3C//DTD SVG 1.1 Tiny//EN" "http://www.w3.org/Graphics/SVG/1.1/DTD/svg11-tiny.dtd">
<svg version="1.1" baseProfile="tiny" id="Capa_1" xmlns="http://www.w3.org/2000/svg" xmlns:xlink="http://www.w3.org/1999/xlink"
	 x="0" y="0" width="100" height="100" viewBox="0 0 100 100" xml:space="preserve">
<g>
	<path fill="#E0B271" d="M16.858,0.001c12.897,0,15.477,24.682,15.477,50.501c0,25.818-2.303,49.5-15.2,49.5
		s-17.134,5.167-17.134-49.25C0.001-5.332,3.962,0.001,16.858,0.001z"/>
	<path fill="#E0B271" d="M38.584,6.106c11.335,0,13.603,21.693,13.603,44.389c0,22.692-2.023,43.507-13.359,43.507
		s-15.061-8.13-15.061-43.287C23.768,11.382,27.249,6.106,38.584,6.106z"/>
	<path fill="#E0B271" d="M57.858,12.142c9.591,0,11.508,18.354,11.508,37.553c0,19.199-1.713,36.808-11.303,36.808
		c-9.591,0-12.741-6.878-12.741-36.621C45.322,16.604,48.268,12.142,57.858,12.142z"/>
	<path fill="#E0B271" d="M73.458,24.864c6.725,0,8.068,12.868,8.068,26.329c0,13.461-1.201,25.809-7.924,25.809
		c-6.726,0-8.935-4.823-8.935-25.677C64.668,27.992,66.733,24.864,73.458,24.864z"/>
	<path fill="#E0B271" d="M83.794,37.296c3.637,0,4.364,6.961,4.364,14.244c0,7.281-0.649,13.962-4.286,13.962
		c-3.639,0-4.833-2.609-4.833-13.892C79.039,38.988,80.155,37.296,83.794,37.296z"/>
	<path fill="#E0B271" d="M99.998,51.763c-0.067,5.084-4.978,6.047-10.099,5.99c-5.123-0.058-9.81-1.018-9.741-6.103
		c0.069-5.084,1.927-6.735,9.862-6.647C98.899,45.101,100.065,46.679,99.998,51.763z"/>
</g>
<path fill="none" stroke="#CE835E" d="M26.492,15.635c-5.803,0.132-10.268,10.411-9.983,22.982l0.139-0.138
	c-2.343,26.566,1.998,48.613,9.706,49.293"/>
<path fill="none" stroke="#CE835E" d="M47.616,17.364c-4.476,0.058-7.982,9.031-7.843,20.066l0.107-0.121
	c-1.973,23.288,1.237,42.676,7.177,43.351"/>
<path fill="none" stroke="#CE835E" d="M66.36,26c-3.795,0.048-6.779,6.847-6.674,15.199l0.092-0.092
	c-1.701,17.631,0.998,32.307,6.033,32.81"/>
<path fill="none" stroke="#CE835E" d="M80.931,38.874c-2.438,0.03-4.371,3.396-4.318,7.519l0.06-0.047
	c-1.128,8.712,0.58,15.955,3.815,16.194"/>
<path fill="none" stroke="#CE835E" d="M88.358,44.873c-1.799,0.021-3.232,1.845-3.203,4.072l0.043-0.025
	c-0.854,4.709,0.388,8.618,2.773,8.738"/>
</svg>
