<?xml version="1.0" encoding="utf-8"?>
<!-- Generator: Adobe Illustrator 14.0.0, SVG Export Plug-In . SVG Version: 6.00 Build 43363)  -->
<!DOCTYPE svg PUBLIC "-//W3C//DTD SVG 1.1 Tiny//EN" "http://www.w3.org/Graphics/SVG/1.1/DTD/svg11-tiny.dtd">
<svg version="1.1" baseProfile="tiny" id="Capa_1" xmlns="http://www.w3.org/2000/svg" xmlns:xlink="http://www.w3.org/1999/xlink"
	 x="0" y="0" width="100" height="100" viewBox="0 0 100 100" xml:space="preserve">
<g>
	<path fill="#E0B271" d="M100,16.858c0,12.897-24.681,15.476-50.5,15.476S0,30.031,0,17.134S-5.167,0,49.25,0
		C105.333,0,100,3.961,100,16.858z"/>
	<path fill="#E0B271" d="M93.894,38.583c0,11.335-21.693,13.603-44.387,13.603C26.814,52.186,6,50.162,6,38.826
		s8.13-15.06,43.287-15.06C88.619,23.767,93.894,27.248,93.894,38.583z"/>
	<path fill="#E0B271" d="M87.859,57.857c0,9.591-18.353,11.508-37.552,11.508c-19.199,0-36.808-1.712-36.808-11.303
		c0-9.59,6.878-12.74,36.621-12.74C83.397,45.322,87.859,48.267,87.859,57.857z"/>
	<path fill="#E0B271" d="M75.137,73.457c0,6.724-12.867,8.068-26.329,8.068C35.347,81.525,23,80.324,23,73.601
		c0-6.725,4.823-8.934,25.677-8.934C72.009,64.667,75.137,66.732,75.137,73.457z"/>
	<path fill="#E0B271" d="M62.705,83.793c0,3.637-6.961,4.364-14.243,4.364S34.5,87.508,34.5,83.871
		c0-3.639,2.609-4.833,13.891-4.833C61.013,79.038,62.705,80.155,62.705,83.793z"/>
	<path fill="#E0B271" d="M48.239,99.997c-5.084-0.067-6.047-4.977-5.99-10.099c0.057-5.123,1.017-9.809,6.102-9.741
		c5.085,0.069,6.735,1.927,6.647,9.862C54.901,98.899,53.322,100.065,48.239,99.997z"/>
</g>
<path fill="none" stroke="#CE835E" d="M84.366,26.491c-0.132-5.802-10.411-10.267-22.982-9.983l0.138,0.139
	c-26.566-2.343-48.613,1.998-49.293,9.706"/>
<path fill="none" stroke="#CE835E" d="M82.636,47.615c-0.057-4.475-9.031-7.982-20.065-7.842l0.121,0.107
	c-23.288-1.973-42.676,1.237-43.35,7.177"/>
<path fill="none" stroke="#CE835E" d="M74.001,66.359c-0.048-3.794-6.847-6.779-15.198-6.673l0.091,0.091
	c-17.631-1.701-32.306,0.999-32.809,6.034"/>
<path fill="none" stroke="#CE835E" d="M61.128,80.929c-0.03-2.438-3.395-4.371-7.518-4.317l0.046,0.059
	c-8.712-1.128-15.954,0.58-16.193,3.816"/>
<path fill="none" stroke="#CE835E" d="M55.129,88.357c-0.022-1.799-1.845-3.232-4.072-3.203l0.025,0.043
	c-4.709-0.854-8.617,0.388-8.738,2.774"/>
</svg>
