<?xml version="1.0" encoding="utf-8"?>
<!-- Generator: Adobe Illustrator 14.0.0, SVG Export Plug-In . SVG Version: 6.00 Build 43363)  -->
<!DOCTYPE svg PUBLIC "-//W3C//DTD SVG 1.1 Tiny//EN" "http://www.w3.org/Graphics/SVG/1.1/DTD/svg11-tiny.dtd">
<svg version="1.1" baseProfile="tiny" id="Capa_1" xmlns="http://www.w3.org/2000/svg" xmlns:xlink="http://www.w3.org/1999/xlink"
	 x="0" y="0" width="100" height="100" viewBox="0 0 100 100" xml:space="preserve">
<g>
	<path fill="#E0B271" d="M0.004,83.143c0-12.897,24.682-15.477,50.501-15.477c25.818,0,49.5,2.303,49.5,15.2S105.172,100,50.755,100
		C-5.329,100,0.004,96.039,0.004,83.143z"/>
	<path fill="#E0B271" d="M6.109,61.417c0-11.335,21.693-13.603,44.388-13.603c22.693,0,43.507,2.023,43.507,13.359
		s-8.13,15.061-43.287,15.061C11.385,76.233,6.109,72.752,6.109,61.417z"/>
	<path fill="#E0B271" d="M12.145,42.143c0-9.591,18.354-11.508,37.553-11.508s36.809,1.713,36.809,11.303
		c0,9.591-6.878,12.741-36.622,12.741C16.607,54.679,12.145,51.733,12.145,42.143z"/>
	<path fill="#E0B271" d="M24.867,26.543c0-6.725,12.867-8.068,26.329-8.068c13.461,0,25.809,1.201,25.809,7.924
		c0,6.726-4.823,8.935-25.677,8.935C27.995,35.333,24.867,33.268,24.867,26.543z"/>
	<path fill="#E0B271" d="M37.299,16.207c0-3.637,6.961-4.364,14.244-4.364c7.281,0,13.962,0.649,13.962,4.286
		c0,3.639-2.609,4.833-13.892,4.833C38.99,20.962,37.299,19.846,37.299,16.207z"/>
	<path fill="#E0B271" d="M51.766,0.003c5.084,0.067,6.047,4.978,5.99,10.099c-0.058,5.123-1.018,9.81-6.103,9.741
		c-5.085-0.069-6.735-1.927-6.647-9.862C45.104,1.102,46.682-0.064,51.766,0.003z"/>
</g>
<path fill="none" stroke="#CE835E" d="M15.638,73.509c0.132,5.803,10.411,10.268,22.982,9.983l-0.138-0.139
	c26.566,2.343,48.613-1.998,49.293-9.706"/>
<path fill="none" stroke="#CE835E" d="M17.367,52.385c0.058,4.476,9.031,7.982,20.066,7.843l-0.121-0.107
	c23.288,1.973,42.676-1.237,43.351-7.177"/>
<path fill="none" stroke="#CE835E" d="M26.003,33.641c0.048,3.795,6.847,6.779,15.198,6.674l-0.092-0.092
	c17.632,1.701,32.308-0.998,32.811-6.033"/>
<path fill="none" stroke="#CE835E" d="M38.876,19.07c0.03,2.438,3.396,4.371,7.519,4.318l-0.047-0.06
	c8.713,1.128,15.955-0.58,16.194-3.815"/>
<path fill="none" stroke="#CE835E" d="M44.875,11.643c0.021,1.799,1.845,3.232,4.072,3.203l-0.025-0.043
	c4.71,0.854,8.618-0.388,8.738-2.773"/>
</svg>
