<?xml version="1.0" encoding="utf-8"?>
<!-- Generator: Adobe Illustrator 14.0.0, SVG Export Plug-In . SVG Version: 6.00 Build 43363)  -->
<!DOCTYPE svg PUBLIC "-//W3C//DTD SVG 1.1 Tiny//EN" "http://www.w3.org/Graphics/SVG/1.1/DTD/svg11-tiny.dtd">
<svg version="1.1" baseProfile="tiny" id="Capa_1" xmlns="http://www.w3.org/2000/svg" xmlns:xlink="http://www.w3.org/1999/xlink"
	 x="0" y="0" width="100" height="100" viewBox="0 0 100 100" xml:space="preserve">
<g>
	<path fill="#E0B271" d="M83.145,99.998c-12.897,0-15.477-24.682-15.477-50.5s2.303-49.5,15.2-49.5s17.134-5.167,17.134,49.25
		C100.002,105.331,96.041,99.998,83.145,99.998z"/>
	<path fill="#E0B271" d="M61.419,93.893c-11.335,0-13.603-21.693-13.603-44.388c0-22.693,2.023-43.507,13.359-43.507
		s15.061,8.13,15.061,43.287C76.235,88.617,72.754,93.893,61.419,93.893z"/>
	<path fill="#E0B271" d="M42.145,87.857c-9.591,0-11.508-18.354-11.508-37.553s1.713-36.808,11.303-36.808
		c9.591,0,12.741,6.878,12.741,36.621C54.681,83.395,51.735,87.857,42.145,87.857z"/>
	<path fill="#E0B271" d="M26.545,75.135c-6.725,0-8.068-12.867-8.068-26.329c0-13.461,1.201-25.808,7.924-25.808
		c6.726,0,8.935,4.823,8.935,25.677C35.335,72.007,33.27,75.135,26.545,75.135z"/>
	<path fill="#E0B271" d="M16.209,62.703c-3.637,0-4.364-6.961-4.364-14.244c0-7.282,0.649-13.962,4.286-13.962
		c3.639,0,4.833,2.609,4.833,13.891C20.964,61.012,19.848,62.703,16.209,62.703z"/>
	<path fill="#E0B271" d="M0.005,48.236c0.067-5.084,4.978-6.047,10.099-5.99c5.123,0.057,9.81,1.017,9.741,6.102
		c-0.069,5.085-1.927,6.735-9.862,6.647C1.104,54.898-0.063,53.32,0.005,48.236z"/>
</g>
<path fill="none" stroke="#CE835E" d="M73.511,84.364c5.803-0.132,10.268-10.411,9.983-22.982l-0.139,0.138
	c2.343-26.566-1.998-48.613-9.706-49.293"/>
<path fill="none" stroke="#CE835E" d="M52.387,82.635c4.476-0.058,7.982-9.031,7.843-20.066l-0.107,0.121
	c1.973-23.288-1.237-42.676-7.177-43.35"/>
<path fill="none" stroke="#CE835E" d="M33.643,73.999c3.795-0.048,6.779-6.847,6.674-15.198l-0.092,0.092
	c1.701-17.632-0.998-32.307-6.033-32.81"/>
<path fill="none" stroke="#CE835E" d="M19.072,61.126c2.438-0.03,4.371-3.396,4.318-7.519l-0.06,0.047
	c1.128-8.713-0.58-15.955-3.815-16.194"/>
<path fill="none" stroke="#CE835E" d="M11.645,55.127c1.799-0.021,3.232-1.845,3.203-4.072l-0.043,0.025
	c0.854-4.709-0.388-8.618-2.773-8.738"/>
</svg>
