<?xml version="1.0" encoding="utf-8"?>
<!-- Generator: Adobe Illustrator 14.0.0, SVG Export Plug-In . SVG Version: 6.00 Build 43363)  -->
<!DOCTYPE svg PUBLIC "-//W3C//DTD SVG 1.1 Tiny//EN" "http://www.w3.org/Graphics/SVG/1.1/DTD/svg11-tiny.dtd">
<svg version="1.1" baseProfile="tiny" id="Capa_1" xmlns="http://www.w3.org/2000/svg" xmlns:xlink="http://www.w3.org/1999/xlink"
	 x="0px" y="0px" width="100" height="100" viewBox="0 0 100 100" xml:space="preserve">
<g>
	<path id="_3" transform="matrix(1.4304997,0.0,0.0,1.0,-21.071651,0.0)"  fill="#FFFAEB" d="M86.194,65.983c0,19.005-16.487,34.411-36.825,34.411S12.544,84.988,12.544,65.983S21.5,0.395,49.369,0.395
		C79.75,0.395,86.194,46.979,86.194,65.983z"/>
	<path fill="#A6E300" d="M31.351,61.404c0,0,15.665-16.862,13.688-24.205c-1.975-7.346-5.071,0.086-7.877,3.352
		c-2.805,3.264-6.019-6.689-6.019-6.689s-3.976-7.967-9.302,5.935C16.516,53.698,16.103,79.937,31.351,61.404z"/>
	<path fill="#A6E300" d="M22.223,80.683c0,0,19.77,23.458,38.701,14.576c18.93-8.884,1.363-26.469-2.214-27.578
		C55.136,66.571,18.059,70.427,22.223,80.683z"/>
	<path fill="#A6E300" d="M82.491,53.265c-8.105-17.699-15.109-23.621-20.635-21.066c-5.524,2.554-9.8,11.587-8.73,14.3
		c1.07,2.711,13.938,24.434,18.568,14.98c4.631-9.454,8.866,15.088,10.362-7.138"/>
</g>
</svg>
